<?xml version="1.0" encoding="UTF-8"?>
<svg id="Layer_1" xmlns="http://www.w3.org/2000/svg" version="1.1" viewBox="0 0 1920 1920">
  <!-- Generator: Adobe Illustrator 29.5.0, SVG Export Plug-In . SVG Version: 2.1.0 Build 137)  -->
  <defs>
    <style>
      .st0 {
        fill: #2ec2ef;
      }
    </style>
  </defs>
  <path class="st0" d="M207.73,1030.27c-1.69.1-2.96,1.61-2.76,3.29.43,3.68,2.56,6.34,5.35,8.8,16.69,14.68,35.77,24.33,58.11,25.93,32.51,2.32,65.07,1.71,97.62.29,19.82-.86,39.55-2.59,59.18-5.34,36.79-5.14,73.05-12.62,106.96-28.42,27.01-12.57,46.64-33,63.06-57.76,22.5-33.92,37.63-70.8,49.32-109.39,8.27-27.31,17.05-54.46,27.08-81.16,6.2-16.51,20.71-28.99,39.83-28.04,18.99.94,38.08.3,57.12.19,17.06-.1,24.98,5.05,31.28,20.86,26.12,65.42,52.24,130.84,78.35,196.26,1.17,2.95,2.15,6.02,5.47,7.33,5.08,2.01,9.2-.36,11.7-6.83,8.32-21.49,16.6-42.98,24.89-64.49,16.65-43.16,33.29-86.33,49.96-129.49,1.08-2.78,2.27-5.53,3.55-8.23,4.84-10.26,13.12-15.22,24.32-15.26,29.41-.11,58.81-.22,88.21-.11,13.35.05,21.69,6.07,26.48,18.86,9.41,25.12,18.66,50.32,27.93,75.49,15.69,42.59,31.37,85.19,47.01,127.8,1.45,3.95,3.09,7.25,8.1,7.52,5.28.29,7.36-3.03,9.05-7.04,10.32-24.64,19.81-49.59,30.3-74.17,18.63-43.67,50.52-74.47,91.99-96.31,47.52-25.02,97.83-42.25,150.1-54.03,24.32-5.49,48.81-10.17,73.58-12.92,20.51-2.28,41.18-2.5,61.74-.77,17.43,1.46,34.87,2.83,52.26,4.73,42.4,4.62,83.96,12.48,121.68,33.91,27.75,15.76,49.76,36.73,61.37,67.25,6,15.76,8.74,32.13,8.46,48.84-1.26,75.94-.41,151.88-.44,227.82,0,2.83,0,5.71-.46,8.5-1.84,11.31-9.99,18.98-21.61,19.14-25.39.33-50.79.29-76.18.02-10.64-.11-18.93-7.77-21.27-18.45-.18-.81-.18-1.66-.34-2.48-1.44-7.01-3.42-8.15-10-5.42-10.12,4.21-20.31,8.25-30.7,11.76-30.71,10.41-62.23,16.9-94.53,19.83-23.15,2.11-46.28,3.65-69.51,1.82-37.57-2.97-73.42-11.49-104.24-34.49-23.94-17.86-36.25-42.28-38.82-71.97-2.3-26.72,2.13-51.74,17.4-74.24,11.53-16.98,27.49-28.86,45.33-38.48,27.04-14.58,56.13-23.15,86.07-29.16,39.26-7.88,78.91-12.95,118.8-16.17,25.29-2.04,50.59-3.92,76.24-5.89,1.69-.13,2.97-1.65,2.78-3.33-.92-8.52-5.32-14.94-12.78-19.5-12.52-7.64-26.21-12.42-40.7-14.1-33.42-3.87-66.96-2.84-100.47-1.68-19.03.65-50.04,3.28-68.89,6.01-34.15,4.94-67.84,11.91-99.54,25.85-24.86,10.94-45.57,27.07-61,49.97-12.01,17.82-23.8,35.79-32.72,55.29-9.51,20.79-17.1,42.4-23.6,64.37-8.09,27.35-17.29,54.34-26.95,81.19-4.95,13.76-13.36,20.02-27.84,19.45-28.23-1.12-56.45-.52-84.67.08-14.76.31-23.4-5.51-28.76-19.28-24.84-63.79-49.63-127.61-74.46-191.41-.84-2.16-1.79-4.28-2.77-6.39-1.46-3.19-3.93-4.75-7.52-4.73-3.64.02-6.04,1.77-7.32,5-4.36,10.92-8.69,21.86-12.89,32.84-20.23,52.91-41.65,105.37-60.99,158.61-5.49,15.1-20.04,25.03-36.1,24.4-25.29-1-50.6-.7-75.88.27-14.35.55-24.97-2.97-32.2-20.39-11.91-28.7-21.89-58.15-33.12-87.1-9.2-23.69-19.43-47.02-29.11-70.55-4.37-10.63-8.84-21.22-13.46-32.25-1.03-2.44-4.48-2.46-5.53-.02-5.07,11.89-9.95,23.41-15.01,34.86-8.65,19.56-17,39.3-27.46,57.99-9.74,17.42-20.8,32.12-35.6,46.46-13.82,13.39-29.51,24.68-46.3,34.07-16.03,8.96-26.43,14.66-43.08,22.69-12.44,6-33.13,15.04-46.25,19.32-14.73,4.81-29.89,9.2-44.83,11.12-9.06,1.17-116.67,10.81-146.54,8.56-19.94-1.5-39.85-3.03-59.71-5.32-39.29-4.54-77.8-12.09-113.18-31-27.84-14.88-49.8-35.17-64.09-64.03-8.27-16.68-17.68-32.74-22.36-50.91-26.66-103.23,17.48-195.83,113.5-240.52,25.08-11.67,51.52-18.43,78.87-22.24,35.43-4.92,71.01-7.48,106.76-6.65,35.44.82,70.59,4.16,104.17,16.8,23.59,8.89,44.62,21.4,59.54,42.4,10.83,15.26,16.01,32.44,17.63,50.98,2.16,24.5-1.68,47.64-14.43,68.9-10.8,18.03-26.49,30.86-44.57,41.13-25.97,14.76-54.07,23.53-83.03,29.94-23.15,5.12-46.57,8.78-70.07,11.8-20.46,2.63-40.98,4.72-61.56,6.36-23.43,1.88-46.87,3.57-70.34,4.95h-.03l.03.03.04-.02ZM1575.92,1062.57c29.27-.22,56.74-4.22,83.66-11.77,20.66-5.8,40.92-12.84,59.65-23.46,14.9-8.44,19.7-19.35,17.05-35.98-1.2-7.59-3.37-9.36-11.01-8.93-29.99,1.68-59.97,3.18-89.84,6.65-25.15,2.91-50.2,6.34-74.85,12.21-14.6,3.47-28.67,8.58-41.22,17.03-7.12,4.79-10.78,11.56-10.02,20.39.75,8.71,6.42,12.87,13.83,15.93,17.37,7.2,35.72,7.38,52.76,7.92h-.01ZM364.77,857.87h-.23c-27.46.49-53.4,3.79-78.81,10.5-22.67,5.99-44.79,13.66-65.38,25.08-13.42,7.44-18.83,19.02-16.8,34.21,1.22,9.15,3.47,10.87,12.74,10.21,10.81-.77,21.65-1.07,32.46-1.79,13.95-.93,27.92-1.78,41.83-3.23,15.52-1.6,31.01-3.52,46.44-5.84,18.95-2.85,37.95-5.73,56.16-12.03,10.78-3.73,21.43-7.91,30.32-15.47,9.48-8.06,10.61-26.73-5.73-33.18-17.54-6.93-35.81-7.55-53.01-8.44h.01v-.02Z"/>
</svg>
